<svg width="377" height="377" viewBox="0 0 377 377" fill="none" xmlns="http://www.w3.org/2000/svg">
<path d="M220.595 75.8408L106.989 104.347L74.8738 216.987L156.364 301.119L269.97 272.612L302.086 159.973L220.595 75.8408Z" fill="#7B69EC"/>
<path fill-rule="evenodd" clip-rule="evenodd" d="M219.024 69.5807C221.261 69.0195 223.627 69.6941 225.231 71.3504L306.722 155.483C308.326 157.139 308.925 159.525 308.293 161.743L276.177 274.382C275.545 276.599 273.778 278.311 271.541 278.872L157.935 307.379C155.699 307.94 153.333 307.266 151.728 305.609L70.2378 221.477C68.6335 219.821 68.0347 217.434 68.6669 215.217L100.782 102.578C101.415 100.36 103.182 98.6487 105.418 98.0875L219.024 69.5807ZM292.228 171.009L264.785 267.259L168.769 291.352L193.925 196.058L292.228 171.009ZM181.725 191.699L155.519 290.97L82.1024 215.173L110.149 116.804L181.725 191.699ZM218.552 83.008L119.468 107.871L191.585 183.333L291.152 157.962L218.552 83.008Z" fill="#543CE6"/>
<path d="M164.042 141.313C160.694 141.312 157.407 142.201 154.517 143.889C151.627 145.577 149.237 148.003 147.594 150.919C145.95 153.835 145.111 157.135 145.164 160.482C145.216 163.829 146.157 167.102 147.891 169.965C143.585 170.797 139.702 173.102 136.91 176.485C134.119 179.868 132.592 184.117 132.592 188.503C132.592 192.889 134.119 197.138 136.91 200.521C139.702 203.904 143.585 206.209 147.891 207.042M164.042 141.313C164.042 137.141 165.699 133.14 168.649 130.19C171.598 127.241 175.599 125.583 179.771 125.583C183.942 125.583 187.943 127.241 190.893 130.19C193.843 133.14 195.5 137.141 195.5 141.313V235.688C195.5 239.859 193.843 243.86 190.893 246.81C187.943 249.76 183.942 251.417 179.771 251.417C175.599 251.417 171.598 249.76 168.649 246.81C165.699 243.86 164.042 239.859 164.042 235.688C160.695 235.688 157.409 234.798 154.52 233.111C151.63 231.423 149.242 228.997 147.598 226.082C145.955 223.168 145.116 219.868 145.167 216.522C145.219 213.177 146.159 209.905 147.891 207.042M164.042 141.313C164.042 146.459 166.514 151.027 170.333 153.896M147.891 207.042C150.149 203.304 153.633 200.464 157.75 199.007M241.115 142.885L226.958 157.042H214.375M241.115 234.115L226.958 219.958H214.375M241.115 188.5H214.375M236.396 142.885C236.396 144.137 236.893 145.337 237.778 146.222C238.663 147.107 239.863 147.604 241.115 147.604C242.366 147.604 243.566 147.107 244.451 146.222C245.336 145.337 245.833 144.137 245.833 142.885C245.833 141.634 245.336 140.434 244.451 139.549C243.566 138.664 242.366 138.167 241.115 138.167C239.863 138.167 238.663 138.664 237.778 139.549C236.893 140.434 236.396 141.634 236.396 142.885ZM236.396 234.115C236.396 232.863 236.893 231.663 237.778 230.778C238.663 229.893 239.863 229.396 241.115 229.396C242.366 229.396 243.566 229.893 244.451 230.778C245.336 231.663 245.833 232.863 245.833 234.115C245.833 235.366 245.336 236.566 244.451 237.451C243.566 238.336 242.366 238.833 241.115 238.833C239.863 238.833 238.663 238.336 237.778 237.451C236.893 236.566 236.396 235.366 236.396 234.115ZM236.396 188.5C236.396 189.752 236.893 190.952 237.778 191.837C238.663 192.722 239.863 193.219 241.115 193.219C242.366 193.219 243.566 192.722 244.451 191.837C245.336 190.952 245.833 189.752 245.833 188.5C245.833 187.249 245.336 186.048 244.451 185.163C243.566 184.278 242.366 183.781 241.115 183.781C239.863 183.781 238.663 184.278 237.778 185.163C236.893 186.048 236.396 187.249 236.396 188.5Z" stroke="white" stroke-width="9" stroke-linecap="round" stroke-linejoin="round"/>
<rect x="166" y="159" width="25" height="71" fill="#7B69EC"/>
<ellipse cx="178.5" cy="235.5" rx="9.5" ry="11.5" fill="#7B69EC"/>
<path d="M166 175L150.09 158.593C151.178 153.776 152.718 151.391 157 148L168.5 159H166V175Z" fill="#7B69EC"/>
<path d="M150 158.5L166 175V159H168.5L157 148C152.599 151.486 151.094 153.908 150 159" stroke="#7B69EC" stroke-width="0.7"/>
<rect x="156.934" y="147.881" width="2" height="6.17293" transform="rotate(-29.8775 156.934 147.881)" fill="#7B69EC"/>
</svg>
