<svg width="359" height="359" viewBox="0 0 359 359" fill="none" xmlns="http://www.w3.org/2000/svg">
<path d="M174.948 61.9689L278.361 116.966L282.439 234.023L183.104 296.083L79.6905 241.086L75.6126 124.029L174.948 61.9689Z" fill="#33C2FF"/>
<path fill-rule="evenodd" clip-rule="evenodd" d="M178.093 56.798C176.057 55.7153 173.598 55.801 171.643 57.0227L72.3074 119.083C70.3518 120.305 69.1966 122.477 69.2768 124.781L73.3548 241.838C73.4351 244.143 74.7387 246.229 76.7746 247.312L180.188 302.309C182.224 303.392 184.683 303.306 186.638 302.084L285.973 240.024C287.929 238.802 289.084 236.63 289.004 234.326L284.926 117.269C284.846 114.964 283.542 112.878 281.506 111.795L178.093 56.798ZM82.641 137.636L86.1257 237.665L173.529 284.147L172.033 185.596L82.641 137.636ZM184.923 184.3L186.481 286.961L275.974 231.051L272.412 128.821L184.923 184.3ZM175.322 69.9447L265.514 117.91L177.365 173.808L86.8263 125.233L175.322 69.9447Z" fill="#00B2FF"/>
<path d="M119.917 144.792C119.917 141.631 121.172 138.6 123.407 136.365C125.642 134.131 128.673 132.875 131.833 132.875H227.167C230.327 132.875 233.358 134.131 235.593 136.365C237.828 138.6 239.083 141.631 239.083 144.792V210.333C239.083 213.494 237.828 216.525 235.593 218.76C233.358 220.994 230.327 222.25 227.167 222.25H185.458V234.167H203.333C204.914 234.167 206.429 234.794 207.546 235.912C208.664 237.029 209.292 238.545 209.292 240.125C209.292 241.705 208.664 243.221 207.546 244.338C206.429 245.456 204.914 246.083 203.333 246.083H155.667C154.086 246.083 152.571 245.456 151.453 244.338C150.336 243.221 149.708 241.705 149.708 240.125C149.708 238.545 150.336 237.029 151.453 235.912C152.571 234.794 154.086 234.167 155.667 234.167H173.542V222.25H131.833C128.673 222.25 125.642 220.994 123.407 218.76C121.172 216.525 119.917 213.494 119.917 210.333V144.792ZM227.167 210.333V144.792H131.833V210.333H227.167Z" fill="white"/>
<rect x="132" y="145" width="95" height="66" fill="#33C2FF"/>
</svg>
