<svg width="293" height="293" viewBox="0 0 293 293" fill="none" xmlns="http://www.w3.org/2000/svg">
<path d="M112.029 34.1841L226.14 60.5941L260.324 172.623L180.397 258.241L66.2852 231.831L32.101 119.803L112.029 34.1841Z" fill="#33C2FF"/>
<path fill-rule="evenodd" clip-rule="evenodd" d="M113.731 28.3763C111.484 27.8563 109.131 28.5744 107.558 30.26L27.6301 115.879C26.0566 117.564 25.5018 119.961 26.1748 122.167L60.3589 234.195C61.0319 236.401 62.8304 238.08 65.0769 238.599L179.189 265.009C181.435 265.529 183.788 264.811 185.362 263.126L265.289 177.507C266.863 175.822 267.417 173.425 266.745 171.219L232.56 59.1905C231.887 56.985 230.089 55.3061 227.842 54.7862L113.731 28.3763ZM42.4066 131.132L71.6179 226.864L168.063 249.185L141.155 154.367L42.4066 131.132ZM153.273 149.784L181.303 248.557L253.31 171.422L223.456 73.5843L153.273 149.784ZM114.451 41.7925L213.974 64.8261L143.26 141.601L43.245 118.068L114.451 41.7925Z" fill="#00B2FF"/>
<path d="M201.444 140.492C193.335 138.33 182.408 147.442 176.964 141.65C170.362 134.623 185.729 120.298 184.146 107.209C182.872 96.4753 170.593 91.4558 158.431 91.3786C148.876 91.2417 139.391 93.0232 130.537 96.6179C121.683 100.213 113.64 105.547 106.885 112.306C81.2472 137.751 75.7258 174.084 101.595 199.104C125.573 222.27 165.728 215.436 189.127 193.698C196.364 186.594 201.93 177.968 205.42 168.446C209.59 157.249 209.977 142.809 201.444 140.492ZM113.294 123.812C115.386 122.991 117.715 123.02 119.786 123.893C121.856 124.766 123.503 126.413 124.376 128.484C124.723 130.703 124.186 132.97 122.879 134.797C121.572 136.624 119.6 137.865 117.387 138.253C115.297 139.084 112.963 139.06 110.89 138.186C108.817 137.312 107.17 135.658 106.306 133.581C105.969 131.363 106.51 129.101 107.816 127.276C109.121 125.452 111.087 124.209 113.294 123.812ZM96.5758 163.388C96.2292 161.163 96.7721 158.892 98.087 157.064C99.402 155.236 101.383 153.999 103.603 153.62C105.689 152.8 108.013 152.83 110.077 153.704C112.141 154.577 113.781 156.224 114.646 158.292C114.95 160.491 114.394 162.724 113.091 164.522C111.789 166.321 109.842 167.547 107.657 167.944C105.579 168.763 103.265 168.745 101.2 167.896C99.1343 167.047 97.4773 165.432 96.5758 163.388ZM123.604 195.551C121.513 196.383 119.179 196.359 117.106 195.485C115.033 194.611 113.387 192.957 112.522 190.879C112.184 188.667 112.72 186.41 114.018 184.587C115.315 182.763 117.271 181.517 119.472 181.111C121.564 180.29 123.893 180.319 125.964 181.192C128.034 182.065 129.681 183.712 130.554 185.783C130.723 186.899 130.671 188.037 130.4 189.132C130.128 190.228 129.643 191.259 128.973 192.167C128.302 193.074 127.458 193.841 126.49 194.421C125.523 195.002 124.45 195.386 123.333 195.551H123.604ZM134.917 114.893C134.579 112.675 135.121 110.413 136.426 108.589C137.732 106.764 139.697 105.521 141.905 105.124C143.998 104.313 146.323 104.347 148.391 105.219C150.458 106.091 152.106 107.732 152.987 109.796C153.333 112.021 152.79 114.293 151.475 116.121C150.16 117.949 148.179 119.186 145.959 119.565C143.874 120.395 141.546 120.37 139.479 119.495C137.412 118.621 135.773 116.967 134.917 114.893ZM157.388 200.571C155.298 201.402 152.964 201.378 150.891 200.504C148.818 199.63 147.171 197.976 146.307 195.899C145.97 193.681 146.511 191.419 147.817 189.595C149.122 187.77 151.088 186.527 153.296 186.13C155.388 185.319 157.713 185.353 159.781 186.225C161.849 187.097 163.497 188.738 164.377 190.802C164.721 193.044 164.163 195.331 162.824 197.162C161.485 198.993 159.475 200.219 157.234 200.571H157.388ZM176.694 160.184C175.502 163.222 173.156 165.665 170.169 166.979C168.466 167.734 166.625 168.128 164.763 168.137C162.737 168.204 160.733 167.696 158.984 166.671C157.234 165.646 155.811 164.146 154.879 162.346C154.304 161.147 153.984 159.842 153.937 158.513C153.891 157.184 154.119 155.86 154.608 154.624C155.801 151.586 158.146 149.143 161.134 147.828C163.805 146.443 166.912 146.151 169.794 147.016C172.677 147.881 175.11 149.834 176.578 152.461C177.106 153.687 177.378 155.007 177.378 156.342C177.378 157.676 177.106 158.997 176.578 160.222L176.694 160.184Z" fill="white"/>
<ellipse cx="115" cy="131.5" rx="8" ry="7.5" fill="#33C2FF"/>
<circle cx="162" cy="159" r="8" fill="#33C2FF"/>
<ellipse cx="156.236" cy="193.334" rx="8.57161" ry="7.74061" transform="rotate(-15.9374 156.236 193.334)" fill="#33C2FF"/>
</svg>
