<svg width="318" height="318" viewBox="0 0 318 318" fill="none" xmlns="http://www.w3.org/2000/svg">
<path d="M213.748 55.2295L96.6823 59.0439L41.4528 162.333L103.289 261.808L220.355 257.993L275.584 154.704L213.748 55.2295Z" fill="#7B69EC"/>
<path fill-rule="evenodd" clip-rule="evenodd" d="M213.538 48.7788C215.843 48.7037 218.012 49.8638 219.23 51.8222L281.066 151.297C282.283 153.255 282.363 155.714 281.276 157.748L226.047 261.037C224.959 263.07 222.87 264.369 220.565 264.444L103.499 268.259C101.195 268.334 99.025 267.174 97.8077 265.215L35.9714 165.741C34.754 163.782 34.6739 161.323 35.7612 159.29L90.9906 56.0007C92.0779 53.9673 94.1674 52.6683 96.4721 52.5933L213.538 48.7788ZM263.614 163.403L216.42 251.664L117.48 254.888L162.237 167.077L263.614 163.403ZM151.236 160.235L104.611 251.71L48.9016 162.091L97.1341 71.8869L151.236 160.235ZM210.234 61.8018L108.132 65.1287L162.643 154.146L265.324 150.424L210.234 61.8018Z" fill="#543CE6"/>
<rect x="133" y="111" width="53" height="93" fill="#7B69EC"/>
<path d="M186.981 101H132.981C129.401 101 125.967 102.203 123.435 104.345C120.904 106.487 119.481 109.392 119.481 112.421V203.789C119.481 206.818 120.904 209.723 123.435 211.865C125.967 214.007 129.401 215.21 132.981 215.21H186.981C190.562 215.21 193.996 214.007 196.527 211.865C199.059 209.723 200.481 206.818 200.481 203.789V112.421C200.481 109.392 199.059 106.487 196.527 104.345C193.996 102.203 190.562 101 186.981 101ZM166.731 209.499H153.231V203.789H166.731V209.499ZM186.981 198.079H132.981V118.132H186.981V198.079Z" fill="white"/>
</svg>
