<svg width="293" height="293" viewBox="0 0 293 293" fill="none" xmlns="http://www.w3.org/2000/svg">
<path d="M112.029 34.1841L226.14 60.5941L260.324 172.623L180.397 258.241L66.2852 231.831L32.101 119.803L112.029 34.1841Z" fill="#33C2FF"/>
<path fill-rule="evenodd" clip-rule="evenodd" d="M113.731 28.3763C111.484 27.8563 109.131 28.5744 107.558 30.26L27.6302 115.879C26.0566 117.564 25.5019 119.961 26.1749 122.167L60.359 234.195C61.032 236.401 62.8304 238.08 65.0769 238.599L179.189 265.009C181.435 265.529 183.788 264.811 185.362 263.126L265.289 177.507C266.863 175.822 267.418 173.425 266.745 171.219L232.56 59.1905C231.887 56.985 230.089 55.3061 227.842 54.7862L113.731 28.3763ZM42.4066 131.132L71.6179 226.864L168.063 249.185L141.155 154.367L42.4066 131.132ZM153.273 149.784L181.303 248.557L253.311 171.422L223.456 73.5843L153.273 149.784ZM114.451 41.7925L213.974 64.8261L143.26 141.601L43.245 118.068L114.451 41.7925Z" fill="#00B2FF"/>
<g clip-path="url(#clip0_1406_173)">
<path d="M120.748 155.844C129.99 155.844 137.482 148.352 137.482 139.109C137.482 129.867 129.99 122.375 120.748 122.375C111.506 122.375 104.014 129.867 104.014 139.109C104.014 148.352 111.506 155.844 120.748 155.844Z" stroke="white" stroke-width="10" stroke-linecap="round" stroke-linejoin="round"/>
<path d="M87.7109 204.307C87.7694 198.709 89.2456 193.218 92.0017 188.346C97.8098 178.078 108.964 171.558 120.758 171.532C132.551 171.558 143.706 178.078 149.514 188.346C152.27 193.218 153.746 198.709 153.805 204.307" stroke="white" stroke-width="10" stroke-linecap="round" stroke-linejoin="round"/>
<path d="M171.98 95.4478V88.0625" stroke="white" stroke-width="10" stroke-linecap="round" stroke-linejoin="round"/>
<path d="M197.172 104.512L203.217 100.268" stroke="white" stroke-width="10" stroke-linecap="round" stroke-linejoin="round"/>
<path d="M146.771 104.512L140.727 100.268" stroke="white" stroke-width="10" stroke-linecap="round" stroke-linejoin="round"/>
<path d="M190.288 128.526C190.326 118.378 181.737 109.934 171.591 110.144C161.445 110.355 153.214 119.149 153.674 129.286C153.969 135.812 157.96 141.942 163.807 144.854V153.855C163.821 154.387 164.042 154.893 164.423 155.265C164.805 155.636 165.316 155.844 165.848 155.844H178.094C178.627 155.844 179.138 155.636 179.52 155.265C179.9 154.893 180.122 154.387 180.135 153.855V144.697C186.166 141.694 190.205 135.263 190.288 128.526Z" stroke="white" stroke-width="10" stroke-linecap="round" stroke-linejoin="round"/>
</g>
<defs>
<clipPath id="clip0_1406_173">
<rect width="126" height="126" fill="white" transform="translate(83 83)"/>
</clipPath>
</defs>
</svg>
